<svg width="36" height="36" viewBox="0 0 36 36" fill="none" xmlns="http://www.w3.org/2000/svg">
<path d="M3.45042 15.2504C3.96559 12.3288 5.33555 9.6255 7.38708 7.48245C9.4386 5.3394 12.0795 3.85282 14.9759 3.2107C17.8723 2.56858 20.8941 2.79977 23.6591 3.87502C26.4241 4.95027 28.8082 6.8213 30.5098 9.25149C32.2115 11.6817 33.1543 14.5619 33.219 17.5279C33.2837 20.4939 32.4674 23.4125 30.8734 25.9146C29.2794 28.4167 26.9792 30.39 24.2637 31.5848C21.5483 32.7796 18.5395 33.1424 15.6178 32.6273C11.7 31.9364 8.21709 29.7176 5.93526 26.4588C3.65343 23.2 2.75961 19.1682 3.45042 15.2504Z" stroke="white" stroke-width="0.892857" stroke-miterlimit="10" stroke-dasharray="94.64 94.64"/>
</svg>
